<svg height="512pt" viewBox="-20 0 511 512" width="512pt" xmlns="http://www.w3.org/2000/svg"><path d="m456.703125 512h-342.460937c-4.570313 0-8.894532-2.085938-11.738282-5.660156-2.84375-3.578125-3.90625-8.257813-2.878906-12.710938l97.738281-423.539062c4.582031-19.84375 15.878907-37.75 31.816407-50.429688 15.9375-12.679687 35.929687-19.660156 56.292968-19.660156 20.363282 0 40.355469 6.980469 56.292969 19.660156 15.9375 12.679688 27.234375 30.585938 31.8125 50.429688l97.742187 423.539062c1.023438 4.453125-.035156 9.132813-2.878906 12.710938-2.847656 3.574218-7.167968 5.660156-11.738281 5.660156zm0 0" fill="#feac01"/><path d="m471.320312 493.628906-97.742187-423.539062c-4.578125-19.84375-15.875-37.75-31.8125-50.429688-15.9375-12.679687-35.929687-19.660156-56.292969-19.660156v512h171.230469c4.570313 0 8.890625-2.085938 11.738281-5.660156 2.84375-3.578125 3.90625-8.257813 2.878906-12.710938zm0 0" fill="#f89300"/><g fill="#2d2d2d"><path d="m315.472656 230h-30c-8.285156 0-15-6.714844-15-15s6.714844-15 15-15h30c8.285156 0 15 6.714844 15 15s-6.714844 15-15 15zm0 0"/><path d="m315.472656 170h-30c-8.285156 0-15-6.714844-15-15s6.714844-15 15-15h30c8.285156 0 15 6.714844 15 15s-6.714844 15-15 15zm0 0"/><path d="m315.472656 290h-30c-8.285156 0-15-6.714844-15-15s6.714844-15 15-15h30c8.285156 0 15 6.714844 15 15s-6.714844 15-15 15zm0 0"/><path d="m315.472656 350h-30c-8.285156 0-15-6.714844-15-15s6.714844-15 15-15h30c8.285156 0 15 6.714844 15 15s-6.714844 15-15 15zm0 0"/></g><path d="m285.472656 410c-8.285156 0-15-6.714844-15-15v-240c0-8.285156 6.714844-15 15-15s15 6.714844 15 15v240c0 8.285156-6.714844 15-15 15zm0 0" fill="#3c3c3c"/><path d="m285.472656 140v270c8.285156 0 15-6.714844 15-15v-240c0-8.285156-6.714844-15-15-15zm0 0" fill="#2d2d2d"/><path d="m359.320312 90h-147.695312c-4.570312 0-8.890625-2.085938-11.738281-5.660156-2.84375-3.578125-3.902344-8.257813-2.875-12.710938l.351562-1.535156c4.582031-19.847656 15.878907-37.753906 31.816407-50.433594 15.933593-12.679687 35.929687-19.660156 56.292968-19.660156 20.363282 0 40.355469 6.980469 56.292969 19.660156 15.9375 12.679688 27.234375 30.585938 31.816406 50.429688v.003906l.351563 1.535156c1.027344 4.453125-.03125 9.132813-2.878906 12.710938-2.84375 3.574218-7.164063 5.660156-11.734376 5.660156zm0 0" fill="#8f4813"/><path d="m373.933594 71.628906-.351563-1.535156c0-.003906 0-.003906 0-.003906-4.582031-19.84375-15.878906-37.75-31.816406-50.429688-15.9375-12.679687-35.929687-19.660156-56.292969-19.660156v90h73.847656c4.570313 0 8.890626-2.085938 11.734376-5.660156 2.847656-3.578125 3.90625-8.257813 2.878906-12.710938zm0 0" fill="#804111"/><path d="m300.242188 397.613281c.746093-4.214843-.3125-8.71875-3.28125-12.253906l-173.550782-206.832031c-5.324218-6.34375-14.785156-7.175782-21.132812-1.847656-6.347656 5.324218-7.171875 14.785156-1.847656 21.132812l173.554687 206.828125c5.324219 6.347656 14.785156 7.175781 21.128906 1.851563 2.808594-2.359376 4.539063-5.527344 5.128907-8.878907zm0 0" fill="#3c3c3c"/><path d="m68.839844 121.835938c.742187-4.214844-.3125-8.71875-3.28125-12.253907l-38.566406-45.960937c-5.324219-6.347656-14.785157-7.175782-21.132813-1.851563-6.347656 5.328125-7.175781 14.789063-1.851563 21.132813l38.570313 45.964844c5.324219 6.34375 14.785156 7.171874 21.132813 1.847656 2.808593-2.359375 4.539062-5.527344 5.128906-8.878906zm0 0" fill="#3c3c3c"/><path d="m102.277344 176.679688c6.347656-5.328126 15.808594-4.5 21.132812 1.847656l173.550782 206.832031c2.96875 3.535156 4.027343 8.035156 3.28125 12.253906-.589844 3.351563-2.316407 6.519531-5.128907 8.875zm0 0" fill="#2d2d2d"/><path d="m5.859375 61.769531c6.347656-5.324219 15.808594-4.496093 21.132813 1.851563l38.566406 45.960937c2.96875 3.535157 4.023437 8.039063 3.28125 12.253907-.59375 3.351562-2.320313 6.523437-5.128906 8.878906zm0 0" fill="#2d2d2d"/><path d="m144.542969 180.375-45.964844 38.566406c-6.34375 5.328125-15.804687 4.496094-21.128906-1.847656l-57.851563-68.945312c-5.324218-6.34375-4.5-15.808594 1.847656-21.132813l45.960938-38.566406c3.050781-2.558594 6.988281-3.800781 10.949219-3.453125 3.964843.347656 7.628906 2.253906 10.183593 5.304687l57.851563 68.941407c2.558594 3.046874 3.800781 6.988281 3.453125 10.949218-.039062.4375-.09375.871094-.171875 1.300782-.609375 3.457031-2.417969 6.609374-5.128906 8.882812zm0 0" fill="#dd002c"/><path d="m44.425781 107.734375 22.980469-19.285156c3.050781-2.558594 6.988281-3.800781 10.949219-3.453125 3.964843.347656 7.628906 2.253906 10.183593 5.304687l57.851563 68.941407c2.558594 3.046874 3.800781 6.988281 3.453125 10.949218-.039062.4375-.09375.871094-.171875 1.300782-.609375 3.457031-2.417969 6.609374-5.128906 8.882812l-22.980469 19.285156zm0 0" fill="#bf0032"/><path d="m457.472656 512h-342.460937c-4.570313 0-8.894531-2.085938-11.738281-5.660156-2.84375-3.578125-3.90625-8.257813-2.878907-12.710938l23.539063-102c1.570312-6.808594 7.632812-11.628906 14.617187-11.628906h295.382813c6.984375 0 13.046875 4.820312 14.617187 11.628906l23.539063 102c1.027344 4.453125-.035156 9.132813-2.878906 12.710938-2.847657 3.574218-7.167969 5.660156-11.738282 5.660156zm0 0" fill="#8f4813"/><path d="m472.089844 493.628906-23.539063-102c-1.570312-6.808594-7.632812-11.628906-14.617187-11.628906h-148.460938v132h172c4.570313 0 8.894532-2.085938 11.738282-5.660156 2.84375-3.578125 3.90625-8.257813 2.878906-12.710938zm0 0" fill="#804111"/></svg>